<svg width="151" height="45" viewBox="0 0 1515 451" fill="none" xmlns="http://www.w3.org/2000/svg">
<path d="M225.569 436.478C283.809 436.478 336.538 412.87 374.703 374.705C412.868 336.54 436.474 283.812 436.474 225.569C436.474 167.328 412.866 114.599 374.703 76.4342C336.538 38.2692 283.809 14.6639 225.569 14.6639C167.326 14.6639 114.599 38.2713 76.4341 76.4342C38.2692 114.599 14.6639 167.328 14.6639 225.569C14.6639 283.812 38.2713 336.538 76.4341 374.705C114.599 412.87 167.328 436.478 225.569 436.478ZM384.362 384.364C343.724 425.002 287.579 450.14 225.569 450.14C163.558 450.14 107.416 425.002 66.7756 384.364C26.1354 343.724 1 287.579 1 225.569C1 163.558 26.1354 107.416 66.7756 66.7756C107.414 26.1354 163.558 1 225.569 1C287.579 1 343.722 26.1354 384.362 66.7756C425.002 107.414 450.137 163.558 450.137 225.569C450.137 287.579 425.002 343.724 384.362 384.364Z" fill="#F1E0C4" stroke="#AF0707" stroke-width="0.0685795"/>
<path d="M205.973 214.684V408.47C179.142 404.445 167.506 403.391 139.927 390.325V187.101L153.718 180.569L205.975 214.681L205.973 214.684Z" fill="#F1E0C4" stroke="#AF0707" stroke-width="0.0685795"/>
<path d="M205.973 214.684V408.47C179.142 404.445 167.506 403.391 139.927 390.325V187.101L153.718 180.569L205.975 214.681L205.973 214.684Z" fill="#F1E0C4" stroke="#AF0707" stroke-width="0.0685795"/>
<path d="M326.453 126.137V219.039L303.229 203.798L241.536 232.105L240.085 85.4924L253.961 78.9604L326.453 126.137Z" fill="#F1E0C4" stroke="#AF0707" stroke-width="0.0685795"/>
<path d="M326.453 126.137V219.039L303.229 203.798L241.536 232.105L240.085 85.4924L253.961 78.9604L326.453 126.137Z" fill="#F1E0C4" stroke="#AF0707" stroke-width="0.0685795"/>
<path d="M355.487 243.716V354.036C331.161 376.928 319.03 382.514 290.684 395.561L289.439 396.131V216.135L303.231 209.603L355.489 243.716H355.487Z" fill="#F1E0C4" stroke="#AF0707" stroke-width="0.0685795"/>
<path d="M355.487 243.716V354.036C331.161 376.928 319.03 382.514 290.684 395.561L289.439 396.131V216.135L303.231 209.603L355.489 243.716H355.487Z" fill="#F1E0C4" stroke="#AF0707" stroke-width="0.0685795"/>
<path d="M240.085 237.91L302.503 209.603L293.069 224.844L248.797 245.891V407.744C245.786 408.308 243.926 408.376 240.088 407.744V237.908L240.085 237.91Z" fill="#F1E0C4" stroke="#AF0707" stroke-width="0.0685795"/>
<path d="M240.085 237.91L302.503 209.603L293.069 224.844L248.797 245.891V407.744C245.786 408.308 243.926 408.376 240.088 407.744V237.908L240.085 237.91Z" fill="#F1E0C4" stroke="#AF0707" stroke-width="0.0685795"/>
<path d="M92.0231 208.879L154.441 180.572L144.278 196.542L99.2794 217.588V362.745C96.0177 361.012 94.3847 359.796 92.021 356.938V208.877L92.0231 208.879Z" fill="#F1E0C4" stroke="#AF0707" stroke-width="0.0685795"/>
<path d="M92.0231 208.879L154.441 180.572L144.278 196.542L99.2794 217.588V362.745C96.0177 361.012 94.3847 359.796 92.021 356.938V208.877L92.0231 208.879Z" fill="#F1E0C4" stroke="#AF0707" stroke-width="0.0685795"/>
<path d="M173.312 115.25L253.873 78.9604L244.439 94.2037L187.827 121.782V194.362L173.312 184.202V115.25Z" fill="#F1E0C4" stroke="#AF0707" stroke-width="0.0685795"/>
<path d="M173.312 115.25L253.873 78.9604L244.439 94.2037L187.827 121.782V194.362L173.312 184.202V115.25Z" fill="#F1E0C4" stroke="#AF0707" stroke-width="0.0685795"/>
<path d="M407.721 394.04H1515" stroke="#AF0707" stroke-width="1.33319" stroke-miterlimit="22.9256"/>
<path d="M407.721 58.3901H1515" stroke="#AF0707" stroke-width="1.33319" stroke-miterlimit="22.9256"/>
<path d="M542.384 314.23C539.72 314.23 537.311 314.697 535.164 315.631C533.014 316.521 531.193 317.851 529.695 319.629C528.2 321.355 527.057 323.482 526.265 326.005C525.468 328.481 525.072 331.286 525.072 334.417C525.072 338.526 525.703 342.101 526.963 345.141C528.273 348.181 530.188 350.513 532.715 352.149C535.282 353.785 538.483 354.601 542.316 354.601C544.514 354.601 546.593 354.417 548.555 354.044C550.517 353.671 552.429 353.201 554.303 352.64V358.109C552.432 358.808 550.494 359.325 548.485 359.651C546.523 359.977 544.161 360.145 541.406 360.145C536.313 360.145 532.063 359.09 528.65 356.99C525.24 354.887 522.67 351.897 520.943 348.02C519.26 344.14 518.42 339.584 518.42 334.353C518.42 330.571 518.934 327.11 519.962 323.979C521.037 320.851 522.579 318.137 524.588 315.852C526.644 313.565 529.167 311.807 532.16 310.591C535.147 309.331 538.584 308.7 542.461 308.7C545.031 308.7 547.507 308.955 549.889 309.473C552.271 309.987 554.394 310.709 556.269 311.643L553.746 316.971C552.204 316.269 550.473 315.637 548.558 315.076C546.687 314.515 544.635 314.233 542.39 314.233L542.384 314.23ZM577.555 359.439H571.246V314.935H555.617V309.399H593.113V314.935H577.555V359.439ZM610.405 309.399C616.946 309.399 621.709 310.682 624.699 313.252C627.693 315.822 629.184 319.444 629.184 324.117C629.184 326.173 628.832 328.155 628.133 330.073C627.481 331.941 626.383 333.621 624.841 335.116C623.295 336.611 621.242 337.804 618.672 338.694C616.106 339.534 612.951 339.954 609.212 339.954H603.467V359.439H597.158V309.399H610.408H610.405ZM609.844 314.791H603.464V334.555H608.506C611.684 334.555 614.325 334.233 616.428 333.574C618.531 332.872 620.093 331.773 621.125 330.282C622.153 328.783 622.67 326.821 622.67 324.392C622.67 321.167 621.642 318.762 619.586 317.173C617.527 315.587 614.282 314.787 609.847 314.787L609.844 314.791ZM679.749 334.347C679.749 338.227 679.262 341.751 678.278 344.929C677.297 348.057 675.825 350.772 673.863 353.059C671.945 355.351 669.539 357.098 666.643 358.317C663.795 359.533 660.475 360.141 656.693 360.141C652.769 360.141 649.355 359.533 646.456 358.317C643.56 357.057 641.155 355.304 639.236 353.059C637.325 350.772 635.897 348.037 634.963 344.859C634.026 341.681 633.562 338.156 633.562 334.276C633.562 329.136 634.402 324.651 636.085 320.821C637.768 316.991 640.311 313.998 643.721 311.848C647.182 309.701 651.525 308.626 656.756 308.626C661.759 308.626 665.965 309.701 669.371 311.848C672.785 313.951 675.355 316.941 677.082 320.821C678.862 324.651 679.746 329.16 679.746 334.347H679.749ZM640.221 334.347C640.221 338.553 640.805 342.171 641.974 345.208C643.14 348.245 644.941 350.58 647.37 352.22C649.846 353.856 652.957 354.672 656.693 354.672C660.475 354.672 663.559 353.859 665.941 352.22C668.374 350.583 670.171 348.249 671.34 345.208C672.506 342.171 673.094 338.55 673.094 334.347C673.094 328.041 671.784 323.109 669.167 319.558C666.553 315.96 662.417 314.163 656.76 314.163C652.977 314.163 649.846 314.979 647.37 316.615C644.941 318.201 643.14 320.515 641.974 323.556C640.805 326.546 640.221 330.141 640.221 334.347ZM687.406 309.399H693.295V336.87C693.295 338.036 693.275 339.322 693.228 340.723C693.228 342.08 693.204 343.434 693.157 344.792C693.11 346.145 693.04 347.358 692.949 348.437C692.898 349.461 692.851 350.258 692.808 350.819H693.087L720.628 309.399H727.64V359.439H721.75V332.247C721.75 330.984 721.774 329.63 721.821 328.179C721.868 326.684 721.915 325.262 721.959 323.909C722.056 322.508 722.12 321.268 722.17 320.193C722.217 319.118 722.264 318.325 722.308 317.811H722.026L694.414 359.443H687.402V309.402L687.406 309.399ZM753.468 359.439H747.159V314.935H731.533V309.399H769.029V314.935H753.468V359.439ZM801.032 359.439H773.067V309.399H801.032V314.935H779.377V330.564H799.773V336.03H779.377V353.903H801.032V359.439ZM844.532 359.439H838.223V314.935H822.386C822.063 317.505 821.707 320.216 821.331 323.069C820.955 325.871 820.565 328.652 820.142 331.407C819.769 334.165 819.396 336.759 819.023 339.184C818.65 341.613 818.277 343.74 817.901 345.564C817.296 348.692 816.547 351.356 815.66 353.553C814.773 355.75 813.577 357.407 812.079 358.529C810.634 359.651 808.716 360.212 806.334 360.212C805.541 360.212 804.725 360.118 803.885 359.93C803.092 359.792 802.386 359.604 801.778 359.369V354.111C802.296 354.346 802.873 354.558 803.532 354.743C804.187 354.884 804.893 354.954 805.638 354.954C807.039 354.954 808.134 354.393 808.931 353.271C809.771 352.105 810.429 350.681 810.896 349.001C811.36 347.271 811.759 345.564 812.082 343.884C812.361 342.527 812.69 340.727 813.066 338.486C813.439 336.198 813.839 333.534 814.262 330.497C814.729 327.46 815.196 324.164 815.663 320.616C816.177 317.015 816.668 313.279 817.135 309.402H844.539V359.443L844.532 359.439ZM854.624 359.439V309.399H860.933V330.564H870.323C874.993 330.564 878.709 331.192 881.467 332.459C884.225 333.718 886.204 335.422 887.42 337.575C888.633 339.722 889.244 342.127 889.244 344.795C889.244 347.738 888.569 350.305 887.215 352.502C885.905 354.699 883.916 356.402 881.259 357.622C878.591 358.835 875.205 359.443 871.093 359.443H854.621L854.624 359.439ZM870.468 354.04C874.529 354.04 877.583 353.295 879.643 351.8C881.699 350.254 882.73 347.916 882.73 344.788C882.73 342.638 882.209 340.935 881.181 339.672C880.2 338.365 878.729 337.431 876.767 336.87C874.852 336.309 872.446 336.026 869.547 336.026H860.93V354.04H870.464H870.468ZM934.353 359.439H928.047V336.1H902.397V359.439H896.088V309.399H902.397V330.564H928.047V309.399H934.353V359.439ZM975.931 359.439L969.904 343.948H950.069L944.106 359.439H937.733L957.285 309.187H962.956L982.448 359.439H975.931ZM962.402 323.203C962.261 322.83 962.029 322.155 961.7 321.171C961.374 320.19 961.045 319.185 960.719 318.157C960.437 317.082 960.208 316.266 960.02 315.705C959.792 316.642 959.529 317.596 959.251 318.577C959.019 319.511 958.757 320.374 958.478 321.171C958.246 321.97 958.038 322.642 957.85 323.203L952.169 338.341H968.009L962.402 323.203ZM1000.86 338.694L987.898 359.439H980.537L994.556 337.572C992.776 336.964 991.096 336.124 989.51 335.049C987.968 333.974 986.708 332.499 985.727 330.634C984.743 328.763 984.253 326.358 984.253 323.411C984.253 318.883 985.815 315.422 988.949 313.04C992.08 310.608 996.75 309.395 1002.97 309.395H1016.98V359.436H1010.68V338.691H1000.86L1000.86 338.694ZM1003.1 314.791C1000.44 314.791 998.198 315.096 996.377 315.705C994.556 316.313 993.152 317.27 992.171 318.577C991.234 319.884 990.77 321.59 990.77 323.694C990.77 326.778 991.795 329.16 993.854 330.843C995.907 332.522 999.085 333.366 1003.38 333.366H1010.67V314.791H1003.1H1003.1ZM1075.46 359.439H1067.9L1045.25 334.068V359.439H1038.95V309.399H1045.25V333.651L1067.33 309.399H1074.48L1052.75 333.715L1075.46 359.439ZM1121.06 334.347C1121.06 338.227 1120.57 341.751 1119.59 344.929C1118.6 348.057 1117.13 350.772 1115.17 353.059C1113.26 355.351 1110.85 357.098 1107.95 358.317C1105.11 359.533 1101.79 360.141 1098 360.141C1094.08 360.141 1090.67 359.533 1087.77 358.317C1084.87 357.057 1082.47 355.304 1080.55 353.059C1078.64 350.772 1077.21 348.037 1076.28 344.859C1075.34 341.681 1074.87 338.156 1074.87 334.276C1074.87 329.136 1075.72 324.651 1077.4 320.821C1079.08 316.991 1081.62 313.998 1085.03 311.848C1088.49 309.701 1092.84 308.626 1098.07 308.626C1103.07 308.626 1107.27 309.701 1110.68 311.848C1114.1 313.951 1116.66 316.941 1118.39 320.821C1120.17 324.651 1121.06 329.16 1121.06 334.347H1121.06ZM1081.53 334.347C1081.53 338.553 1082.12 342.171 1083.28 345.208C1084.45 348.245 1086.25 350.58 1088.68 352.22C1091.15 353.856 1094.26 354.672 1098 354.672C1101.78 354.672 1104.87 353.859 1107.25 352.22C1109.68 350.583 1111.48 348.249 1112.65 345.208C1113.82 342.171 1114.4 338.55 1114.4 334.347C1114.4 328.041 1113.09 323.109 1110.47 319.558C1107.86 315.96 1103.73 314.163 1098.07 314.163C1094.29 314.163 1091.16 314.979 1088.68 316.615C1086.25 318.201 1084.45 320.515 1083.28 323.556C1082.12 326.546 1081.54 330.141 1081.54 334.347H1081.53ZM1150.72 359.439L1134.25 315.567H1133.97C1134.07 316.501 1134.13 317.693 1134.18 319.141C1134.27 320.589 1134.35 322.178 1134.39 323.909C1134.44 325.588 1134.46 327.315 1134.46 329.092V359.439H1128.64V309.399H1137.97L1153.39 350.399H1153.66L1169.36 309.399H1178.61V359.439H1172.37V328.672C1172.37 327.033 1172.4 325.42 1172.44 323.835C1172.5 322.199 1172.57 320.68 1172.65 319.279C1172.75 317.831 1172.82 316.615 1172.86 315.634H1172.58L1155.91 359.439H1150.72H1150.72ZM1188.73 359.439V309.399H1226.29V359.439H1220.05V314.935H1195.03V359.439H1188.73ZM1267.88 359.439L1261.86 343.948H1242.02L1236.07 359.439H1229.69L1249.24 309.187H1254.92L1274.4 359.439H1267.89H1267.88ZM1254.36 323.203C1254.22 322.83 1253.98 322.155 1253.66 321.171C1253.33 320.19 1253 319.185 1252.67 318.157C1252.4 317.082 1252.16 316.266 1251.98 315.705C1251.74 316.642 1251.48 317.596 1251.2 318.577C1250.97 319.511 1250.71 320.374 1250.43 321.171C1250.2 321.97 1249.99 322.642 1249.8 323.203L1244.13 338.341H1259.97L1254.36 323.203H1254.36ZM1316.01 359.439H1309.7V336.1H1284.05V359.439H1277.74V309.399H1284.05V330.564H1309.7V309.399H1316.01V359.439ZM1326.26 309.399H1332.15V336.87C1332.15 338.036 1332.12 339.322 1332.08 340.723C1332.08 342.08 1332.05 343.434 1332 344.792C1331.95 346.145 1331.89 347.358 1331.8 348.437C1331.74 349.461 1331.7 350.258 1331.66 350.819H1331.94L1359.48 309.399H1366.49V359.439H1360.6V332.247C1360.6 330.984 1360.62 329.63 1360.67 328.179C1360.72 326.684 1360.76 325.262 1360.81 323.909C1360.9 322.508 1360.97 321.268 1361.02 320.193C1361.06 319.118 1361.11 318.325 1361.16 317.811H1360.88L1333.27 359.443H1326.26V309.402L1326.26 309.399ZM1391.54 338.694L1378.58 359.439H1371.22L1385.24 337.572C1383.46 336.964 1381.78 336.124 1380.19 335.049C1378.65 333.974 1377.39 332.499 1376.41 330.634C1375.42 328.763 1374.94 326.358 1374.94 323.411C1374.94 318.883 1376.5 315.422 1379.63 313.04C1382.76 310.608 1387.43 309.395 1393.64 309.395H1407.66V359.436H1401.35V338.691H1391.54V338.694ZM1393.79 314.791C1391.13 314.791 1388.88 315.096 1387.06 315.705C1385.24 316.313 1383.84 317.27 1382.86 318.577C1381.92 319.884 1381.46 321.59 1381.46 323.694C1381.46 326.778 1382.48 329.16 1384.53 330.843C1386.59 332.522 1389.77 333.366 1394.06 333.366H1401.36V314.791H1393.79Z" fill="#F1E0C4" stroke="#AF0707" stroke-width="0.0685795"/>
<path d="M591.59 266.491H581.877C565.761 266.491 552.525 264.331 542.164 260.017C526.192 253.399 514.464 241.241 506.982 223.539C504.967 218.792 503.421 213.575 502.343 207.894C501.264 202.209 500.724 196.562 500.724 190.952C500.724 184.763 501.154 179.153 502.017 174.117C502.88 169.081 504.537 163.827 506.982 158.361C514.464 140.662 526.192 128.504 542.164 121.883C552.38 117.566 565.62 115.409 581.877 115.409H591.59V145.625H586.839C576.193 145.625 568.996 145.913 565.257 146.488C557.776 147.637 551.372 150.372 546.047 154.689C543.027 157.134 540.581 159.869 538.71 162.889C536.12 166.917 534.393 171.594 533.53 176.919H591.59V204.978H533.53C534.104 210.444 535.834 215.48 538.71 220.086C541.156 223.973 544.176 227.137 547.774 229.583C553.096 233.037 560.366 235.123 569.574 235.842C573.314 236.128 577.775 236.272 582.955 236.272H591.59V266.488V266.491Z" fill="#F1E0C4" stroke="#AF0707" stroke-width="0.0685795"/>
<path d="M694.323 145.628H661.517V266.491H629.575V145.628H596.769V115.409H694.323V145.628Z" fill="#F1E0C4" stroke="#AF0707" stroke-width="0.0685795"/>
<path d="M810.44 266.491H778.497V212.533H745.691V182.317H778.497V167.64C778.497 159.872 776.7 153.828 773.102 149.511C769.504 145.194 764.397 143.034 757.776 143.034C751.157 143.034 746.048 145.194 742.453 149.511C738.855 153.828 737.054 159.869 737.054 167.64V266.491H705.111V169.585C705.111 151.742 710.292 137.642 720.653 127.281C730.295 117.639 742.668 112.818 757.776 112.818C772.598 112.818 784.897 117.639 794.684 127.281C805.186 137.639 810.437 151.742 810.437 169.585V266.491H810.44Z" fill="#F1E0C4" stroke="#AF0707" stroke-width="0.0685795"/>
<path d="M906.057 266.491H877.138C859.151 266.491 846.848 261.169 840.23 250.519C835.913 243.468 833.756 233.036 833.756 219.222V115.405H865.699V217.71C865.699 225.766 867.859 231.017 872.173 233.466C874.477 234.76 879.009 235.408 885.769 235.408H906.057V266.487V266.491Z" fill="#F1E0C4" stroke="#AF0707" stroke-width="0.0685795"/>
<path d="M1069.01 190.844C1069.01 212.533 1061.42 230.954 1046.24 246.132C1031.06 261.277 1012.6 268.866 990.877 268.866C969.151 268.866 950.697 261.277 935.518 246.132C920.336 230.954 912.747 212.533 912.747 190.844C912.747 169.151 920.336 150.734 935.518 135.556C950.7 120.411 969.151 112.822 990.877 112.822C1012.6 112.822 1031.06 120.414 1046.24 135.556C1061.42 150.738 1069.01 169.155 1069.01 190.844ZM1037.07 190.844C1037.07 177.93 1032.61 166.887 1023.69 157.679C1014.77 148.507 1003.83 143.901 990.88 143.901C977.929 143.901 966.997 148.433 958.074 157.46C949.155 166.524 944.693 177.641 944.693 190.844C944.693 203.758 949.155 214.801 958.074 224.01C966.997 233.181 977.933 237.787 990.88 237.787C1003.83 237.787 1014.77 233.255 1023.69 224.228C1032.61 215.164 1037.07 204.047 1037.07 190.844Z" fill="#F1E0C4" stroke="#AF0707" stroke-width="0.0685795"/>
<path d="M1207.57 240.199C1207.57 249.118 1206.93 255.27 1205.63 258.723C1203.04 265.486 1197.72 268.869 1189.66 268.869C1181.61 268.869 1174.98 265.056 1169.8 257.467C1167.79 254.447 1165.27 249.844 1162.25 243.656L1120.38 158.582V266.497H1088.44V139.587C1088.44 132.535 1089.37 127.069 1091.24 123.186C1094.55 116.278 1100.74 112.825 1109.8 112.825C1117.28 112.825 1123.4 115.2 1128.15 119.947C1131.02 122.826 1134.55 128.437 1138.72 136.782L1175.63 212.325V115.415H1207.57V240.202V240.199Z" fill="#F1E0C4" stroke="#AF0707" stroke-width="0.0685795"/>
<path d="M1317.86 266.491H1308.15C1292.04 266.491 1278.8 264.331 1268.44 260.017C1252.47 253.399 1240.74 241.241 1233.26 223.539C1231.24 218.792 1229.7 213.575 1228.62 207.894C1227.54 202.209 1227 196.562 1227 190.952C1227 184.763 1227.43 179.153 1228.29 174.117C1229.16 169.081 1230.81 163.827 1233.26 158.361C1240.74 140.662 1252.47 128.504 1268.44 121.883C1278.66 117.566 1291.9 115.409 1308.15 115.409H1317.86V145.625H1313.11C1302.47 145.625 1295.27 145.913 1291.53 146.488C1284.05 147.637 1277.65 150.372 1272.32 154.689C1269.3 157.134 1266.86 159.869 1264.99 162.889C1262.39 166.917 1260.67 171.594 1259.8 176.919H1317.86V204.978H1259.8C1260.38 210.444 1262.11 215.48 1264.99 220.086C1267.43 223.973 1270.45 227.137 1274.05 229.583C1279.37 233.037 1286.64 235.123 1295.85 235.842C1299.59 236.128 1304.05 236.272 1309.23 236.272H1317.86V266.488V266.491Z" fill="#F1E0C4" stroke="#AF0707" stroke-width="0.0685795"/>
<path d="M1425.35 225.269C1425.35 233.615 1423.55 240.811 1419.95 246.851C1415.02 255.196 1408.04 260.807 1398.94 263.686C1393.19 265.557 1385.1 266.491 1374.73 266.491H1331.25V236.275H1372.4C1378.48 236.275 1382.79 235.845 1385.38 234.982C1390.17 233.4 1392.54 230.232 1392.54 225.485C1392.54 222.32 1391.32 219.37 1388.88 216.635C1387.29 214.909 1381.75 210.951 1372.26 204.766C1362.18 198.148 1354.85 193.038 1350.24 189.44C1343.91 184.404 1339.38 179.583 1336.64 174.98C1333.05 169.081 1331.25 162.174 1331.25 154.259C1331.25 145.913 1333.33 138.573 1337.5 132.243C1342.25 124.903 1348.58 120.085 1356.5 117.784C1361.82 116.202 1369.66 115.409 1380.02 115.409H1419.09V145.625H1377.65C1373.33 145.625 1370.31 145.984 1368.58 146.703C1365.56 148 1364.05 150.445 1364.05 154.044C1364.05 156.775 1365.06 159.365 1367.07 161.811C1368.65 163.827 1370.6 165.768 1372.9 167.636C1374.63 168.933 1378.8 171.664 1385.42 175.837C1396.06 182.311 1403.87 187.528 1408.84 191.486C1413.8 195.443 1417.51 199.435 1419.95 203.463C1421.82 206.342 1423.19 209.721 1424.05 213.608C1424.92 217.492 1425.35 221.379 1425.35 225.263V225.269Z" fill="#F1E0C4" stroke="#AF0707" stroke-width="0.0685795"/>
</svg>
